<svg xmlns="http://www.w3.org/2000/svg" width="1200" height="680" viewBox="0 0 1200 680" role="img" aria-labelledby="title desc">
  <title id="title">AI 노동시장 공개서한 발행 판단 점수</title>
  <desc id="desc">영향력, 주요 매체 확산도, 출처 검증, 새로움, 사용자 영향, 블로그 적합도, 도표화 가능성을 점수 막대로 정리한 SVG 도표</desc>
  <rect width="1200" height="680" fill="#f7faf8"/>
  <rect x="70" y="62" width="1060" height="540" rx="8" fill="#ffffff" stroke="#dce6e1"/>
  <text x="95" y="118" font-family="Segoe UI, Arial, sans-serif" font-size="34" font-weight="800" fill="#16201c">발행 판단: AI 경제 전환 공개서한</text>
  <text x="95" y="154" font-family="Segoe UI, Arial, sans-serif" font-size="18" fill="#5d6a64">총점 86/100, 검증 상태 확정. 막대는 각 항목 배점 대비 획득 점수입니다.</text>
  <g font-family="Segoe UI, Arial, sans-serif" font-size="20" fill="#16201c">
    <text x="95" y="222">영향력</text>
    <text x="95" y="292">주요 매체 확산도</text>
    <text x="95" y="362">출처 검증</text>
    <text x="95" y="432">새로움/중복 회피</text>
    <text x="95" y="502">사용자 영향</text>
    <text x="95" y="572">블로그/도표 적합도</text>
  </g>
  <g transform="translate(330 198)">
    <rect width="690" height="34" rx="8" fill="#eef5f1"/>
    <rect width="644" height="34" rx="8" fill="#2457d6"/>
    <text x="715" y="24" font-family="Segoe UI, Arial, sans-serif" font-size="19" font-weight="800" fill="#16201c">28/30</text>
  </g>
  <g transform="translate(330 268)">
    <rect width="690" height="34" rx="8" fill="#eef5f1"/>
    <rect width="586" height="34" rx="8" fill="#18a875"/>
    <text x="715" y="24" font-family="Segoe UI, Arial, sans-serif" font-size="19" font-weight="800" fill="#16201c">17/20</text>
  </g>
  <g transform="translate(330 338)">
    <rect width="690" height="34" rx="8" fill="#eef5f1"/>
    <rect width="621" height="34" rx="8" fill="#18a875"/>
    <text x="715" y="24" font-family="Segoe UI, Arial, sans-serif" font-size="19" font-weight="800" fill="#16201c">18/20</text>
  </g>
  <g transform="translate(330 408)">
    <rect width="690" height="34" rx="8" fill="#eef5f1"/>
    <rect width="621" height="34" rx="8" fill="#d9951e"/>
    <text x="715" y="24" font-family="Segoe UI, Arial, sans-serif" font-size="19" font-weight="800" fill="#16201c">9/10</text>
  </g>
  <g transform="translate(330 478)">
    <rect width="690" height="34" rx="8" fill="#eef5f1"/>
    <rect width="621" height="34" rx="8" fill="#2457d6"/>
    <text x="715" y="24" font-family="Segoe UI, Arial, sans-serif" font-size="19" font-weight="800" fill="#16201c">9/10</text>
  </g>
  <g transform="translate(330 548)">
    <rect width="690" height="34" rx="8" fill="#eef5f1"/>
    <rect width="621" height="34" rx="8" fill="#5d6a64"/>
    <text x="715" y="24" font-family="Segoe UI, Arial, sans-serif" font-size="19" font-weight="800" fill="#16201c">9/10</text>
  </g>
  <text x="95" y="638" font-family="Segoe UI, Arial, sans-serif" font-size="15" fill="#5d6a64">데이터: AP, Business Insider, Stanford Digital Economy Lab 공개서한 보도 내용을 바탕으로 직접 재구성. 외부 사진 또는 유료 그래픽 미사용.</text>
</svg>
