<svg xmlns="http://www.w3.org/2000/svg" viewBox="0 0 1200 720" role="img" aria-labelledby="title desc">
  <title id="title">2026년 7월 28일 코스피 급락의 주요 시점</title>
  <desc id="desc">전일 종가, 개장가, 1단계 서킷브레이커 발동 시점, 오후 1시 21분 지수를 연결한 시점별 도표</desc>
  <rect width="1200" height="720" fill="#f7f5ef"/>
  <g font-family="Segoe UI, Malgun Gothic, sans-serif">
    <text x="58" y="60" fill="#18231f" font-size="32" font-weight="800">한국 증시는 ‘중국 한 가지 뉴스’보다 크게 반응했다</text>
    <text x="58" y="94" fill="#5d6863" font-size="18">연속 시세가 아니라 급락을 설명하는 네 시점의 대표값</text>

    <rect x="58" y="126" width="740" height="482" rx="8" fill="#ffffff" stroke="#d9d5ca"/>
    <g stroke="#e7e3da" stroke-width="1">
      <line x1="112" y1="180" x2="754" y2="180"/>
      <line x1="112" y1="290" x2="754" y2="290"/>
      <line x1="112" y1="400" x2="754" y2="400"/>
      <line x1="112" y1="510" x2="754" y2="510"/>
    </g>
    <g fill="#7a827e" font-size="15">
      <text x="72" y="186">6,800</text>
      <text x="72" y="296">6,500</text>
      <text x="72" y="406">6,200</text>
      <text x="72" y="516">5,900</text>
    </g>

    <line x1="112" y1="394" x2="754" y2="394" stroke="#c34b45" stroke-width="2" stroke-dasharray="8 8"/>
    <rect x="567" y="365" width="174" height="28" rx="5" fill="#fff1ef"/>
    <text x="579" y="385" fill="#a43a35" font-size="14" font-weight="700">1단계 CB 기준 -8%</text>

    <path d="M136 196 L316 327 L506 395 L716 447" fill="none" stroke="#b73335" stroke-width="7" stroke-linecap="round" stroke-linejoin="round"/>
    <path d="M136 196 L316 327 L506 395 L716 447 L716 544 L136 544 Z" fill="#b73335" opacity="0.08"/>

    <g>
      <circle cx="136" cy="196" r="10" fill="#ffffff" stroke="#355e54" stroke-width="5"/>
      <text x="118" y="158" fill="#355e54" font-size="16" font-weight="800">전일 종가</text>
      <text x="118" y="179" fill="#18231f" font-size="19" font-weight="800">6,755.75</text>
      <text x="111" y="574" fill="#59645f" font-size="15">7월 27일</text>
    </g>
    <g>
      <circle cx="316" cy="327" r="10" fill="#ffffff" stroke="#b9792e" stroke-width="5"/>
      <text x="276" y="286" fill="#8b581d" font-size="16" font-weight="800">개장</text>
      <text x="276" y="308" fill="#18231f" font-size="19" font-weight="800">6,400.27</text>
      <text x="280" y="574" fill="#59645f" font-size="15">09:00</text>
    </g>
    <g>
      <circle cx="506" cy="395" r="10" fill="#ffffff" stroke="#b73335" stroke-width="5"/>
      <text x="448" y="439" fill="#a22f31" font-size="16" font-weight="800">서킷브레이커</text>
      <text x="448" y="462" fill="#18231f" font-size="19" font-weight="800">6,213.51</text>
      <text x="476" y="574" fill="#59645f" font-size="15">10:13</text>
    </g>
    <g>
      <circle cx="716" cy="447" r="10" fill="#ffffff" stroke="#7a272b" stroke-width="5"/>
      <text x="638" y="487" fill="#7a272b" font-size="16" font-weight="800">장중 -10.10%</text>
      <text x="638" y="510" fill="#18231f" font-size="19" font-weight="800">6,073.16</text>
      <text x="687" y="574" fill="#59645f" font-size="15">13:21</text>
    </g>

    <rect x="828" y="126" width="314" height="482" rx="8" fill="#1f2b27"/>
    <text x="862" y="174" fill="#ffffff" font-size="23" font-weight="800">낙폭을 키운 세 층</text>
    <g>
      <circle cx="872" cy="224" r="16" fill="#d0574f"/>
      <text x="867" y="230" fill="#ffffff" font-size="16" font-weight="800">1</text>
      <text x="904" y="219" fill="#ffffff" font-size="18" font-weight="800">반도체 집중도</text>
      <text x="904" y="247" fill="#cad2ce" font-size="15">삼성전자·SK하이닉스 급락이</text>
      <text x="904" y="270" fill="#cad2ce" font-size="15">지수 전체를 크게 끌어내렸다.</text>
    </g>
    <g>
      <circle cx="872" cy="333" r="16" fill="#c5893b"/>
      <text x="867" y="339" fill="#ffffff" font-size="16" font-weight="800">2</text>
      <text x="904" y="328" fill="#ffffff" font-size="18" font-weight="800">글로벌 동반 매도</text>
      <text x="904" y="356" fill="#cad2ce" font-size="15">미국 메모리·장비주와 일본·대만</text>
      <text x="904" y="379" fill="#cad2ce" font-size="15">증시도 함께 약세를 보였다.</text>
    </g>
    <g>
      <circle cx="872" cy="442" r="16" fill="#4a8d83"/>
      <text x="867" y="448" fill="#ffffff" font-size="16" font-weight="800">3</text>
      <text x="904" y="437" fill="#ffffff" font-size="18" font-weight="800">기대와 포지션 청산</text>
      <text x="904" y="465" fill="#cad2ce" font-size="15">AI 투자 지속성 우려와 높은 변동성이</text>
      <text x="904" y="488" fill="#cad2ce" font-size="15">중국발 재료를 증폭시켰다.</text>
    </g>
    <rect x="858" y="526" width="254" height="50" rx="6" fill="#32413b"/>
    <text x="879" y="557" fill="#ffffff" font-size="16" font-weight="700">급락의 원인 ≠ CXMT 하나</text>

    <text x="58" y="656" fill="#5e6864" font-size="15">자료: 한국거래소 발표를 인용한 국내 보도, AP, 사용자가 13:21에 확인한 시장 화면. 시점별 대표값을 재구성했으며 연속 가격 차트가 아니다.</text>
  </g>
</svg>
