<svg xmlns="http://www.w3.org/2000/svg" width="1200" height="720" viewBox="0 0 1200 720" role="img" aria-labelledby="title desc">
  <title id="title">GPT-5.6 Sol의 GPT-5.5 대비 주요 평가 점수 상승폭</title>
  <desc id="desc">ExploitBench 25.6점, OSWorld 2.0 15.1점, BrowseComp Ultra 7.8점, Terminal-Bench 2.1 Ultra 6.3점, Agents' Last Exam 5.8점, Coding Agent Index 3.6점 상승을 보여주는 가로 막대그래프</desc>
  <rect width="1200" height="720" fill="#ffffff"/>
  <text x="72" y="66" fill="#16201c" font-family="Segoe UI, Malgun Gothic, sans-serif" font-size="34" font-weight="700">GPT-5.5에서 GPT-5.6으로, 어디가 크게 뛰었나</text>
  <text x="72" y="103" fill="#5d6a64" font-family="Segoe UI, Malgun Gothic, sans-serif" font-size="19">공식 공개 점수의 차이, 단위: 퍼센트포인트 또는 지수 점수</text>

  <g font-family="Segoe UI, Malgun Gothic, sans-serif">
    <g stroke="#dce6e1" stroke-width="1">
      <line x1="370" y1="142" x2="370" y2="590"/>
      <line x1="495" y1="142" x2="495" y2="590"/>
      <line x1="620" y1="142" x2="620" y2="590"/>
      <line x1="745" y1="142" x2="745" y2="590"/>
      <line x1="870" y1="142" x2="870" y2="590"/>
      <line x1="995" y1="142" x2="995" y2="590"/>
      <line x1="1120" y1="142" x2="1120" y2="590"/>
    </g>
    <g fill="#5d6a64" font-size="16" text-anchor="middle">
      <text x="370" y="620">0</text>
      <text x="495" y="620">5</text>
      <text x="620" y="620">10</text>
      <text x="745" y="620">15</text>
      <text x="870" y="620">20</text>
      <text x="995" y="620">25</text>
      <text x="1120" y="620">30</text>
    </g>

    <g fill="#16201c" font-size="20" font-weight="600">
      <text x="72" y="190">ExploitBench</text>
      <text x="72" y="262">OSWorld 2.0</text>
      <text x="72" y="334">BrowseComp · Ultra</text>
      <text x="72" y="406">Terminal-Bench 2.1 · Ultra</text>
      <text x="72" y="478">Agents' Last Exam</text>
      <text x="72" y="550">Coding Agent Index</text>
    </g>
    <g fill="#5d6a64" font-size="15">
      <text x="72" y="214">73.5 vs 47.9</text>
      <text x="72" y="286">62.6 vs 47.5</text>
      <text x="72" y="358">92.2 vs 84.4</text>
      <text x="72" y="430">91.9 vs 85.6</text>
      <text x="72" y="502">52.7 vs 46.9</text>
      <text x="72" y="574">80.0 vs 76.4</text>
    </g>

    <rect x="370" y="164" width="640" height="38" rx="5" fill="#2457d6"/>
    <rect x="370" y="236" width="378" height="38" rx="5" fill="#18a875"/>
    <rect x="370" y="308" width="195" height="38" rx="5" fill="#d9951e"/>
    <rect x="370" y="380" width="158" height="38" rx="5" fill="#7b61b2"/>
    <rect x="370" y="452" width="145" height="38" rx="5" fill="#2f7e93"/>
    <rect x="370" y="524" width="90" height="38" rx="5" fill="#d06b4f"/>
    <g fill="#16201c" font-size="20" font-weight="700">
      <text x="1024" y="190">+25.6</text>
      <text x="762" y="262">+15.1</text>
      <text x="579" y="334">+7.8</text>
      <text x="542" y="406">+6.3</text>
      <text x="529" y="478">+5.8</text>
      <text x="474" y="550">+3.6</text>
    </g>
  </g>

  <text x="72" y="670" fill="#5d6a64" font-family="Segoe UI, Malgun Gothic, sans-serif" font-size="16">출처: OpenAI GPT-5.6 공식 발표 표. Ultra는 기본 4-agent 구성. 전체 평가가 아닌 대표 업무 항목만 표시.</text>
</svg>
